<svg width="1440" height="505" viewBox="0 0 1440 505" fill="none" xmlns="http://www.w3.org/2000/svg">
<g clip-path="url(#clip0)">
<path d="M0.399487 504.792L1440 504.792L1440 123.1L0.399487 123.1L0.399487 504.792Z" fill="url(#paint0_linear)"/>
<g opacity="0.5">
<path opacity="0.5" d="M1296.39 462.053L1301.69 463.799L1299.86 468.847" stroke="#70AE3E" stroke-width="4.02" stroke-miterlimit="10" stroke-linecap="round"/>
<path opacity="0.5" d="M1292.18 465.412L1287.25 467.702" stroke="#70AE3E" stroke-width="4.02" stroke-miterlimit="10" stroke-linecap="round"/>
</g>
<g opacity="0.5">
<path opacity="0.5" d="M328.239 462.94L333.397 470.307L325.669 475.231" stroke="#70AE3E" stroke-width="6.67" stroke-miterlimit="10" stroke-linecap="round"/>
<path opacity="0.5" d="M319.151 463.322L310.244 461.633" stroke="#70AE3E" stroke-width="6.67" stroke-miterlimit="10" stroke-linecap="round"/>
</g>
<path d="M1163.08 441.881L1152.74 447.017L1158.12 456.887L1168.46 451.751L1163.08 441.881Z" fill="#70AE3E"/>
<path d="M1168.04 426.876L1157.7 432.011L1163.08 441.881L1173.42 436.746L1168.04 426.876Z" fill="#70AE3E"/>
<path d="M1178.75 446.527L1168.41 451.663L1173.79 461.533L1184.13 456.397L1178.75 446.527Z" fill="#70AE3E"/>
<path d="M595.434 385.236L598.258 396.031L609.568 393.335L606.744 382.541L595.434 385.236Z" fill="#70AE3E"/>
<path d="M581.303 377.141L584.126 387.936L595.436 385.24L592.612 374.445L581.303 377.141Z" fill="#70AE3E"/>
<path d="M603.825 371.764L606.648 382.559L617.958 379.863L615.133 369.068L603.825 371.764Z" fill="#70AE3E"/>
<path d="M16.7252 399.477L18.0749 406.758L25.7027 405.465L24.353 398.183L16.7252 399.477Z" fill="#70AE3E"/>
<path d="M7.73773 393.496L9.09737 400.777L16.7254 399.484L15.3658 392.202L7.73773 393.496Z" fill="#70AE3E"/>
<path d="M22.9236 390.913L24.2833 398.195L31.9113 396.902L30.5617 389.62L22.9236 390.913Z" fill="#70AE3E"/>
<g opacity="0.5">
<path opacity="0.5" d="M1409.76 446.699L1396.5 434.037" stroke="#B2DA92" stroke-opacity="0.6" stroke-width="6.73" stroke-miterlimit="10" stroke-linecap="round"/>
<path opacity="0.5" d="M1396.5 446.699L1409.76 434.037" stroke="#B2DA92" stroke-opacity="0.6" stroke-width="6.73" stroke-miterlimit="10" stroke-linecap="round"/>
</g>
<path d="M902.809 440.154H918.785V424.905H902.809V440.154Z" fill="#70AE3E"/>
<path d="M1285.56 26.2469L1301.54 26.2469V10.9984L1285.56 10.9984V26.2469Z" fill="#70AE3E"/>
<path d="M730.215 445.802L737.764 448.901L741.011 441.695L733.461 438.597L730.215 445.802Z" fill="#70AE3E"/>
<path d="M1194.77 109.029L1202.32 112.128L1205.57 104.922L1198.02 101.823L1194.77 109.029Z" fill="#70AE3E"/>
<path d="M32.0912 134.793L39.6392 137.892L42.8882 130.686L35.3403 127.587L32.0912 134.793Z" fill="#70AE3E"/>
<path d="M136.182 468.469L147.479 457.687L136.182 446.905L124.885 457.687L136.182 468.469Z" fill="#70AE3E"/>
<path d="M101.592 357.072L126.655 346.004L115.058 322.085L89.9948 333.152L101.592 357.072Z" stroke="#608741" stroke-width="11.64" stroke-miterlimit="10" stroke-linecap="round"/>
<path d="M550.469 472.259L575.529 461.192L563.935 437.272L538.875 448.34L550.469 472.259Z" stroke="#429301" stroke-width="11.64" stroke-miterlimit="10" stroke-linecap="round"/>
<path d="M1395.89 387.589L1415.41 368.953L1395.89 350.316L1376.36 368.953L1395.89 387.589Z" stroke="#429301" stroke-width="11.64" stroke-miterlimit="10" stroke-linecap="round"/>
<path d="M1320.42 430.525C1318.71 430.525 1317.31 431.854 1317.31 433.493C1317.31 435.132 1318.71 436.461 1320.42 436.461C1322.14 436.461 1323.53 435.132 1323.53 433.493C1323.53 431.854 1322.14 430.525 1320.42 430.525Z" fill="#70AE3E"/>
<path d="M414.825 437.129C413.106 437.129 411.716 438.457 411.716 440.096C411.716 441.735 413.106 443.064 414.825 443.064C416.545 443.064 417.934 441.735 417.934 440.096C417.934 438.457 416.545 437.129 414.825 437.129Z" fill="#70AE3E"/>
<path d="M458.313 379.522C456.595 379.522 455.204 380.85 455.204 382.489C455.204 384.129 456.595 385.457 458.313 385.457C460.03 385.457 461.422 384.129 461.422 382.489C461.422 380.85 460.03 379.522 458.313 379.522Z" fill="#70AE3E"/>
<path d="M722.999 428.264C721.282 428.264 719.89 429.592 719.89 431.231C719.89 432.87 721.282 434.199 722.999 434.199C724.717 434.199 726.108 432.87 726.108 431.231C726.108 429.592 724.717 428.264 722.999 428.264Z" fill="#70AE3E"/>
<path d="M236.254 370.409C234.535 370.409 233.145 371.738 233.145 373.376C233.145 375.016 234.535 376.344 236.254 376.344C237.974 376.344 239.363 375.016 239.363 373.376C239.363 371.738 237.974 370.409 236.254 370.409Z" fill="#70AE3E"/>
<path d="M79.7679 172.034C78.0485 172.034 76.6589 173.362 76.6589 175.002C76.6589 176.641 78.0485 177.969 79.7679 177.969C81.4874 177.969 82.877 176.641 82.877 175.002C82.877 173.362 81.4874 172.034 79.7679 172.034Z" fill="#70AE3E"/>
<path d="M1018.63 421.508C1016.91 421.508 1015.52 422.837 1015.52 424.476C1015.52 426.115 1016.91 427.443 1018.63 427.443C1020.34 427.443 1021.74 426.115 1021.74 424.476C1021.74 422.837 1020.34 421.508 1018.63 421.508Z" fill="#70AE3E"/>
<path d="M1373.41 146.27C1371.69 146.27 1370.3 147.598 1370.3 149.237C1370.3 150.877 1371.69 152.205 1373.41 152.205C1375.13 152.205 1376.52 150.877 1376.52 149.237C1376.52 147.598 1375.13 146.27 1373.41 146.27Z" fill="#70AE3E"/>
<path d="M997.333 468.103C994.639 468.103 992.454 470.188 992.454 472.759C992.454 475.331 994.639 477.416 997.333 477.416C1000.03 477.416 1002.21 475.331 1002.21 472.759C1002.21 470.188 1000.03 468.103 997.333 468.103Z" fill="#70AE3E"/>
<path d="M1087.35 444.078L1093.61 440.648L1090.02 434.673L1083.76 438.103L1087.35 444.078Z" fill="#70AE3E"/>
<g opacity="0.5">
<path opacity="0.5" d="M50.6862 476.834L44.7178 471.137" stroke="#94BB75" stroke-width="2.66" stroke-miterlimit="10" stroke-linecap="round"/>
<path opacity="0.5" d="M44.7178 476.834L50.6862 471.137" stroke="#94BB75" stroke-width="2.66" stroke-miterlimit="10" stroke-linecap="round"/>
</g>
<g opacity="0.5">
<path opacity="0.5" d="M175.851 29.1383L165.854 19.596" stroke="#70AE3E" stroke-width="4.45554" stroke-miterlimit="10" stroke-linecap="round"/>
<path opacity="0.5" d="M165.854 29.1383L175.851 19.596" stroke="#70AE3E" stroke-width="4.45554" stroke-miterlimit="10" stroke-linecap="round"/>
</g>
<path d="M42.2582 449.104C40.5388 449.104 39.1492 450.433 39.1492 452.072C39.1492 453.711 40.5388 455.04 42.2582 455.04C43.9776 455.04 45.3671 453.711 45.3671 452.072C45.3671 450.433 43.9776 449.104 42.2582 449.104Z" fill="#70AE3E"/>
</g>
<defs>
<linearGradient id="paint0_linear" x1="720.2" y1="504.792" x2="720.2" y2="123.1" gradientUnits="userSpaceOnUse">
<stop stop-color="#70AE3E" stop-opacity="0.2"/>
<stop offset="0.0729167" stop-color="#70AE3E" stop-opacity="0.19"/>
<stop offset="0.39" stop-color="#70AE3E" stop-opacity="0.09"/>
<stop offset="0.72" stop-color="#70AE3E" stop-opacity="0.02"/>
<stop offset="1" stop-color="#70AE3E" stop-opacity="0"/>
</linearGradient>
<clipPath id="clip0">
<rect width="1440" height="505" fill="white" transform="translate(1440 505) rotate(180)"/>
</clipPath>
</defs>
</svg>
