<svg width="124" height="23" viewBox="0 0 124 23" fill="none" xmlns="http://www.w3.org/2000/svg">
<path d="M6.22 19.18C5.46 19.18 4.7 19.1533 3.94 19.1C3.19333 19.06 2.41333 18.9533 1.6 18.78V5.34C2.24 5.22 2.94 5.13333 3.7 5.08C4.46 5.01333 5.16667 4.98 5.82 4.98C6.7 4.98 7.50667 5.04667 8.24 5.18C8.98667 5.3 9.62667 5.51333 10.16 5.82C10.6933 6.12667 11.1067 6.53333 11.4 7.04C11.7067 7.53333 11.86 8.14667 11.86 8.88C11.86 9.98667 11.3267 10.86 10.26 11.5C11.14 11.8333 11.74 12.2867 12.06 12.86C12.38 13.4333 12.54 14.08 12.54 14.8C12.54 16.2533 12.0067 17.3467 10.94 18.08C9.88667 18.8133 8.31333 19.18 6.22 19.18ZM4.64 12.96V16.54C4.86667 16.5667 5.11333 16.5867 5.38 16.6C5.64667 16.6133 5.94 16.62 6.26 16.62C7.19333 16.62 7.94667 16.4867 8.52 16.22C9.09333 15.9533 9.38 15.46 9.38 14.74C9.38 14.1 9.14 13.6467 8.66 13.38C8.18 13.1 7.49333 12.96 6.6 12.96H4.64ZM4.64 10.58H6.16C7.12 10.58 7.80667 10.46 8.22 10.22C8.63333 9.96667 8.84 9.56667 8.84 9.02C8.84 8.46 8.62667 8.06667 8.2 7.84C7.77333 7.61333 7.14667 7.5 6.32 7.5C6.05333 7.5 5.76667 7.50667 5.46 7.52C5.15333 7.52 4.88 7.53333 4.64 7.56V10.58ZM23.8175 18.64C23.3108 18.7867 22.6575 18.92 21.8575 19.04C21.0575 19.1733 20.2175 19.24 19.3375 19.24C18.4442 19.24 17.6975 19.12 17.0975 18.88C16.5108 18.64 16.0442 18.3067 15.6975 17.88C15.3508 17.44 15.1042 16.92 14.9575 16.32C14.8108 15.72 14.7375 15.06 14.7375 14.34V8.48H17.7175V13.98C17.7175 14.94 17.8442 15.6333 18.0975 16.06C18.3508 16.4867 18.8242 16.7 19.5175 16.7C19.7308 16.7 19.9575 16.6933 20.1975 16.68C20.4375 16.6533 20.6508 16.6267 20.8375 16.6V8.48H23.8175V18.64ZM29.1548 13.66C29.1548 14.58 29.3615 15.32 29.7748 15.88C30.1882 16.44 30.8015 16.72 31.6148 16.72C31.8815 16.72 32.1282 16.7133 32.3548 16.7C32.5815 16.6733 32.7682 16.6467 32.9148 16.62V11.2C32.7282 11.08 32.4815 10.98 32.1748 10.9C31.8815 10.82 31.5815 10.78 31.2748 10.78C29.8615 10.78 29.1548 11.74 29.1548 13.66ZM35.8948 18.66C35.6282 18.74 35.3215 18.82 34.9748 18.9C34.6282 18.9667 34.2615 19.0267 33.8748 19.08C33.5015 19.1333 33.1148 19.1733 32.7148 19.2C32.3282 19.24 31.9548 19.26 31.5948 19.26C30.7282 19.26 29.9548 19.1333 29.2748 18.88C28.5948 18.6267 28.0215 18.2667 27.5548 17.8C27.0882 17.32 26.7282 16.7467 26.4748 16.08C26.2348 15.4 26.1148 14.64 26.1148 13.8C26.1148 12.9467 26.2215 12.18 26.4348 11.5C26.6482 10.8067 26.9548 10.22 27.3548 9.74C27.7548 9.26 28.2415 8.89333 28.8148 8.64C29.4015 8.38667 30.0682 8.26 30.8148 8.26C31.2282 8.26 31.5948 8.3 31.9148 8.38C32.2482 8.46 32.5815 8.57333 32.9148 8.72V3.96L35.8948 3.48V18.66ZM41.2252 13.66C41.2252 14.58 41.4318 15.32 41.8452 15.88C42.2585 16.44 42.8718 16.72 43.6852 16.72C43.9518 16.72 44.1985 16.7133 44.4252 16.7C44.6518 16.6733 44.8385 16.6467 44.9852 16.62V11.2C44.7985 11.08 44.5518 10.98 44.2452 10.9C43.9518 10.82 43.6518 10.78 43.3452 10.78C41.9318 10.78 41.2252 11.74 41.2252 13.66ZM47.9652 18.66C47.6985 18.74 47.3918 18.82 47.0452 18.9C46.6985 18.9667 46.3318 19.0267 45.9452 19.08C45.5718 19.1333 45.1852 19.1733 44.7852 19.2C44.3985 19.24 44.0252 19.26 43.6652 19.26C42.7985 19.26 42.0252 19.1333 41.3452 18.88C40.6652 18.6267 40.0918 18.2667 39.6252 17.8C39.1585 17.32 38.7985 16.7467 38.5452 16.08C38.3052 15.4 38.1852 14.64 38.1852 13.8C38.1852 12.9467 38.2918 12.18 38.5052 11.5C38.7185 10.8067 39.0252 10.22 39.4252 9.74C39.8252 9.26 40.3118 8.89333 40.8852 8.64C41.4718 8.38667 42.1385 8.26 42.8852 8.26C43.2985 8.26 43.6652 8.3 43.9852 8.38C44.3185 8.46 44.6518 8.57333 44.9852 8.72V3.96L47.9652 3.48V18.66ZM53.7355 19H50.7555V8.48H53.7355V19ZM54.0155 5.44C54.0155 5.98667 53.8355 6.42 53.4755 6.74C53.1288 7.04667 52.7155 7.2 52.2355 7.2C51.7555 7.2 51.3355 7.04667 50.9755 6.74C50.6288 6.42 50.4555 5.98667 50.4555 5.44C50.4555 4.89333 50.6288 4.46667 50.9755 4.16C51.3355 3.84 51.7555 3.68 52.2355 3.68C52.7155 3.68 53.1288 3.84 53.4755 4.16C53.8355 4.46667 54.0155 4.89333 54.0155 5.44ZM56.5367 8.84C57.0434 8.69333 57.6967 8.56 58.4967 8.44C59.2967 8.30667 60.1367 8.24 61.0167 8.24C61.9101 8.24 62.6501 8.36 63.2367 8.6C63.8367 8.82667 64.3101 9.15333 64.6567 9.58C65.0034 10.0067 65.2501 10.5133 65.3967 11.1C65.5434 11.6867 65.6167 12.34 65.6167 13.06V19H62.6367V13.42C62.6367 12.46 62.5101 11.78 62.2567 11.38C62.0034 10.98 61.5301 10.78 60.8367 10.78C60.6234 10.78 60.3967 10.7933 60.1567 10.82C59.9167 10.8333 59.7034 10.8533 59.5167 10.88V19H56.5367V8.84ZM70.8541 13.4C70.8541 15.0667 71.5274 15.9 72.8741 15.9C73.1807 15.9 73.4674 15.86 73.7341 15.78C74.0007 15.7 74.2274 15.6067 74.4141 15.5V10.74C74.2674 10.7133 74.0941 10.6933 73.8941 10.68C73.6941 10.6533 73.4607 10.64 73.1941 10.64C72.4074 10.64 71.8207 10.9 71.4341 11.42C71.0474 11.94 70.8541 12.6 70.8541 13.4ZM77.3941 17.68C77.3941 19.4 76.9541 20.6733 76.0741 21.5C75.2074 22.34 73.8607 22.76 72.0341 22.76C71.3941 22.76 70.7541 22.7 70.1141 22.58C69.4741 22.4733 68.8807 22.3267 68.3341 22.14L68.8541 19.64C69.3207 19.8267 69.8074 19.9733 70.3141 20.08C70.8341 20.1867 71.4207 20.24 72.0741 20.24C72.9274 20.24 73.5274 20.0533 73.8741 19.68C74.2341 19.3067 74.4141 18.8267 74.4141 18.24V17.86C74.0941 18.0067 73.7607 18.12 73.4141 18.2C73.0807 18.2667 72.7141 18.3 72.3141 18.3C70.8607 18.3 69.7474 17.8733 68.9741 17.02C68.2007 16.1533 67.8141 14.9467 67.8141 13.4C67.8141 12.6267 67.9341 11.9267 68.1741 11.3C68.4141 10.66 68.7607 10.1133 69.2141 9.66C69.6807 9.20667 70.2474 8.86 70.9141 8.62C71.5807 8.36667 72.3341 8.24 73.1741 8.24C73.5341 8.24 73.9007 8.26 74.2741 8.3C74.6607 8.32667 75.0407 8.36667 75.4141 8.42C75.7874 8.47333 76.1407 8.54 76.4741 8.62C76.8207 8.68667 77.1274 8.76 77.3941 8.84V17.68Z" fill="#484A4B"/>
<path d="M92.88 5.14V7.8H88.7V19H85.58V7.8H81.4V5.14H92.88ZM99.6384 11.12C99.3718 11.0533 99.0584 10.9867 98.6984 10.92C98.3384 10.84 97.9518 10.8 97.5384 10.8C97.3518 10.8 97.1251 10.82 96.8584 10.86C96.6051 10.8867 96.4118 10.92 96.2784 10.96V19H93.2984V9.04C93.8318 8.85333 94.4584 8.68 95.1784 8.52C95.9118 8.34667 96.7251 8.26 97.6184 8.26C97.7784 8.26 97.9718 8.27333 98.1984 8.3C98.4251 8.31333 98.6518 8.34 98.8784 8.38C99.1051 8.40667 99.3318 8.44667 99.5584 8.5C99.7851 8.54 99.9784 8.59333 100.138 8.66L99.6384 11.12ZM101.041 13.82C101.041 12.8867 101.181 12.0733 101.461 11.38C101.754 10.6733 102.134 10.0867 102.601 9.62C103.067 9.15333 103.601 8.8 104.201 8.56C104.814 8.32 105.441 8.2 106.081 8.2C107.574 8.2 108.754 8.66 109.621 9.58C110.487 10.4867 110.921 11.8267 110.921 13.6C110.921 13.7733 110.914 13.9667 110.901 14.18C110.887 14.38 110.874 14.56 110.861 14.72H104.101C104.167 15.3333 104.454 15.82 104.961 16.18C105.467 16.54 106.147 16.72 107.001 16.72C107.547 16.72 108.081 16.6733 108.601 16.58C109.134 16.4733 109.567 16.3467 109.901 16.2L110.301 18.62C110.141 18.7 109.927 18.78 109.661 18.86C109.394 18.94 109.094 19.0067 108.761 19.06C108.441 19.1267 108.094 19.18 107.721 19.22C107.347 19.26 106.974 19.28 106.601 19.28C105.654 19.28 104.827 19.14 104.121 18.86C103.427 18.58 102.847 18.2 102.381 17.72C101.927 17.2267 101.587 16.6467 101.361 15.98C101.147 15.3133 101.041 14.5933 101.041 13.82ZM108.041 12.68C108.027 12.4267 107.981 12.18 107.901 11.94C107.834 11.7 107.721 11.4867 107.561 11.3C107.414 11.1133 107.221 10.96 106.981 10.84C106.754 10.72 106.467 10.66 106.121 10.66C105.787 10.66 105.501 10.72 105.261 10.84C105.021 10.9467 104.821 11.0933 104.661 11.28C104.501 11.4667 104.374 11.6867 104.281 11.94C104.201 12.18 104.141 12.4267 104.101 12.68H108.041ZM112.72 13.82C112.72 12.8867 112.86 12.0733 113.14 11.38C113.434 10.6733 113.814 10.0867 114.28 9.62C114.747 9.15333 115.28 8.8 115.88 8.56C116.494 8.32 117.12 8.2 117.76 8.2C119.254 8.2 120.434 8.66 121.3 9.58C122.167 10.4867 122.6 11.8267 122.6 13.6C122.6 13.7733 122.594 13.9667 122.58 14.18C122.567 14.38 122.554 14.56 122.54 14.72H115.78C115.847 15.3333 116.134 15.82 116.64 16.18C117.147 16.54 117.827 16.72 118.68 16.72C119.227 16.72 119.76 16.6733 120.28 16.58C120.814 16.4733 121.247 16.3467 121.58 16.2L121.98 18.62C121.82 18.7 121.607 18.78 121.34 18.86C121.074 18.94 120.774 19.0067 120.44 19.06C120.12 19.1267 119.774 19.18 119.4 19.22C119.027 19.26 118.654 19.28 118.28 19.28C117.334 19.28 116.507 19.14 115.8 18.86C115.107 18.58 114.527 18.2 114.06 17.72C113.607 17.2267 113.267 16.6467 113.04 15.98C112.827 15.3133 112.72 14.5933 112.72 13.82ZM119.72 12.68C119.707 12.4267 119.66 12.18 119.58 11.94C119.514 11.7 119.4 11.4867 119.24 11.3C119.094 11.1133 118.9 10.96 118.66 10.84C118.434 10.72 118.147 10.66 117.8 10.66C117.467 10.66 117.18 10.72 116.94 10.84C116.7 10.9467 116.5 11.0933 116.34 11.28C116.18 11.4667 116.054 11.6867 115.96 11.94C115.88 12.18 115.82 12.4267 115.78 12.68H119.72Z" fill="#70AE3E"/>
</svg>
